<svg width="12" height="12" viewBox="0 0 12 12" fill="none" xmlns="http://www.w3.org/2000/svg">
<path fill-rule="evenodd" clip-rule="evenodd" d="M1.5 2.25H11.25C11.6642 2.25 12 1.91421 12 1.5C12 1.08579 11.6642 0.75 11.25 0.75H1.5C1.08579 0.75 0.75 1.08579 0.75 1.5C0.75 1.91421 1.08579 2.25 1.5 2.25ZM1.5 6.75H8.74007C9.15428 6.75 9.49007 6.41421 9.49007 6C9.49007 5.58579 9.15428 5.25 8.74007 5.25H1.5C1.08579 5.25 0.75 5.58579 0.75 6C0.75 6.41421 1.08579 6.75 1.5 6.75ZM11.25 11.25H1.5C1.08579 11.25 0.75 10.9142 0.75 10.5C0.75 10.0858 1.08579 9.75 1.5 9.75H11.25C11.6642 9.75 12 10.0858 12 10.5C12 10.9142 11.6642 11.25 11.25 11.25Z" fill="black"/>
<mask id="mask0" style="mask-type:alpha" maskUnits="userSpaceOnUse" x="0" y="0" width="12" height="12">
<path fill-rule="evenodd" clip-rule="evenodd" d="M1.5 2.25H11.25C11.6642 2.25 12 1.91421 12 1.5C12 1.08579 11.6642 0.75 11.25 0.75H1.5C1.08579 0.75 0.75 1.08579 0.75 1.5C0.75 1.91421 1.08579 2.25 1.5 2.25ZM1.5 6.75H8.74007C9.15428 6.75 9.49007 6.41421 9.49007 6C9.49007 5.58579 9.15428 5.25 8.74007 5.25H1.5C1.08579 5.25 0.75 5.58579 0.75 6C0.75 6.41421 1.08579 6.75 1.5 6.75ZM11.25 11.25H1.5C1.08579 11.25 0.75 10.9142 0.75 10.5C0.75 10.0858 1.08579 9.75 1.5 9.75H11.25C11.6642 9.75 12 10.0858 12 10.5C12 10.9142 11.6642 11.25 11.25 11.25Z" fill="white"/>
</mask>
<g mask="url(#mask0)">
<rect x="-3" y="-3" width="18" height="18" fill="#B7B7B7"/>
</g>
</svg>
