<svg width="4" height="16" viewBox="0 0 4 16" fill="none" xmlns="http://www.w3.org/2000/svg">
<path fill-rule="evenodd" clip-rule="evenodd" d="M2 3.5C1.17237 3.5 0.5 2.82735 0.5 2.00063C0.5 1.1739 1.17237 0.5 2 0.5C2.82763 0.5 3.5 1.1739 3.5 2.00063C3.5 2.82735 2.82763 3.5 2 3.5ZM2 9.5C1.17237 9.5 0.5 8.82735 0.5 8.00063C0.5 7.1739 1.17237 6.5 2 6.5C2.82763 6.5 3.5 7.1739 3.5 8.00063C3.5 8.82735 2.82763 9.5 2 9.5ZM0.5 14.0006C0.5 14.8273 1.17237 15.5 2 15.5C2.82763 15.5 3.5 14.8273 3.5 14.0006C3.5 13.1739 2.82763 12.5 2 12.5C1.17237 12.5 0.5 13.1739 0.5 14.0006Z" fill="#0B0A11"/>
<mask id="mask0" style="mask-type:alpha" maskUnits="userSpaceOnUse" x="0" y="0" width="4" height="16">
<path fill-rule="evenodd" clip-rule="evenodd" d="M2 3.5C1.17237 3.5 0.5 2.82735 0.5 2.00063C0.5 1.1739 1.17237 0.5 2 0.5C2.82763 0.5 3.5 1.1739 3.5 2.00063C3.5 2.82735 2.82763 3.5 2 3.5ZM2 9.5C1.17237 9.5 0.5 8.82735 0.5 8.00063C0.5 7.1739 1.17237 6.5 2 6.5C2.82763 6.5 3.5 7.1739 3.5 8.00063C3.5 8.82735 2.82763 9.5 2 9.5ZM0.5 14.0006C0.5 14.8273 1.17237 15.5 2 15.5C2.82763 15.5 3.5 14.8273 3.5 14.0006C3.5 13.1739 2.82763 12.5 2 12.5C1.17237 12.5 0.5 13.1739 0.5 14.0006Z" fill="white"/>
</mask>
<g mask="url(#mask0)">
<rect x="-7" y="-1" width="18" height="18" fill="#B7B7B7"/>
</g>
</svg>
