<svg width="221" height="191" viewBox="0 0 221 191" fill="none" xmlns="http://www.w3.org/2000/svg">
<g clip-path="url(#clip0)" filter="url(#filter0_d)">
<g filter="url(#filter1_d)">
<rect x="44" width="153" height="44" rx="4" fill="white"/>
</g>
<rect x="84" y="12" width="101" height="8" rx="4" fill="#F0F0F0"/>
<circle cx="66" cy="22" r="9.5" stroke="#E2E2E2"/>
<rect x="84" y="24" width="76" height="8" rx="4" fill="#F0F0F0"/>
<g filter="url(#filter2_d)">
<rect x="15" y="31" width="153" height="44" rx="4" fill="white"/>
</g>
<rect x="55" y="43" width="101" height="8" rx="4" fill="#F0F0F0"/>
<circle cx="37" cy="53" r="9.5" stroke="#E2E2E2"/>
<rect x="55" y="55" width="76" height="8" rx="4" fill="#F0F0F0"/>
<path fill-rule="evenodd" clip-rule="evenodd" d="M197 24C194.791 24 193 25.7909 193 28V41H181C178.791 41 177 42.7909 177 45C177 47.2091 178.791 49 181 49H193V60C193 62.2091 194.791 64 197 64C199.209 64 201 62.2091 201 60V49H213C215.209 49 217 47.2091 217 45C217 42.7909 215.209 41 213 41H201V28C201 25.7909 199.209 24 197 24Z" fill="#7EBB4F"/>
<path d="M87.0874 120.909H84.3324V129.142H84.2173L78.5668 120.909H76.1378V134H78.9055V125.761H79.0014L84.6967 134H87.0874V120.909ZM93.7591 134.192C96.7377 134.192 98.5914 132.153 98.5914 129.129C98.5914 126.087 96.7377 124.054 93.7591 124.054C90.7804 124.054 88.9267 126.087 88.9267 129.129C88.9267 132.153 90.7804 134.192 93.7591 134.192ZM93.7718 132.082C92.3975 132.082 91.6944 130.823 91.6944 129.11C91.6944 127.397 92.3975 126.131 93.7718 126.131C95.1206 126.131 95.8237 127.397 95.8237 129.11C95.8237 130.823 95.1206 132.082 93.7718 132.082ZM104.081 123.191H108.088V134H110.824V123.191H114.832V120.909H104.081V123.191ZM118.015 134.185C119.466 134.185 120.406 133.553 120.885 132.638H120.962V134H123.544V127.378C123.544 125.038 121.563 124.054 119.377 124.054C117.025 124.054 115.478 125.179 115.1 126.969L117.619 127.173C117.804 126.521 118.386 126.042 119.364 126.042C120.291 126.042 120.821 126.509 120.821 127.314V127.352C120.821 127.985 120.15 128.068 118.444 128.234C116.5 128.413 114.755 129.065 114.755 131.258C114.755 133.201 116.142 134.185 118.015 134.185ZM118.795 132.306C117.958 132.306 117.357 131.916 117.357 131.168C117.357 130.401 117.99 130.024 118.949 129.89C119.543 129.807 120.515 129.666 120.841 129.449V130.491C120.841 131.52 119.99 132.306 118.795 132.306ZM133.826 126.982C133.583 125.173 132.126 124.054 129.646 124.054C127.134 124.054 125.478 125.217 125.484 127.109C125.478 128.58 126.405 129.532 128.322 129.915L130.023 130.254C130.879 130.427 131.269 130.74 131.282 131.232C131.269 131.814 130.636 132.229 129.684 132.229C128.712 132.229 128.067 131.814 127.901 131.015L125.222 131.156C125.478 133.035 127.076 134.192 129.678 134.192C132.222 134.192 134.043 132.894 134.05 130.957C134.043 129.538 133.116 128.688 131.212 128.298L129.435 127.94C128.521 127.742 128.182 127.429 128.188 126.956C128.182 126.368 128.847 125.984 129.69 125.984C130.636 125.984 131.199 126.502 131.333 127.135L133.826 126.982ZM135.764 134H138.487V130.881L139.222 130.043L141.901 134H145.09L141.262 128.433L144.905 124.182H141.779L138.634 127.908H138.487V120.909H135.764V134Z" fill="#0B0A11"/>
<path d="M4.4146 162H10.3805V160.906H5.64755V151.818H4.4146V162ZM15.2328 162.159C17.301 162.159 18.693 160.588 18.693 158.222C18.693 155.835 17.301 154.264 15.2328 154.264C13.1646 154.264 11.7725 155.835 11.7725 158.222C11.7725 160.588 13.1646 162.159 15.2328 162.159ZM15.2328 161.105C13.6618 161.105 12.9458 159.753 12.9458 158.222C12.9458 156.69 13.6618 155.318 15.2328 155.318C16.8038 155.318 17.5197 156.69 17.5197 158.222C17.5197 159.753 16.8038 161.105 15.2328 161.105ZM23.5863 162.159C25.6545 162.159 27.0465 160.588 27.0465 158.222C27.0465 155.835 25.6545 154.264 23.5863 154.264C21.5181 154.264 20.1261 155.835 20.1261 158.222C20.1261 160.588 21.5181 162.159 23.5863 162.159ZM23.5863 161.105C22.0153 161.105 21.2994 159.753 21.2994 158.222C21.2994 156.69 22.0153 155.318 23.5863 155.318C25.1573 155.318 25.8732 156.69 25.8732 158.222C25.8732 159.753 25.1573 161.105 23.5863 161.105ZM28.8375 162H30.0108V159.141L30.8311 158.381L33.6898 162H35.1813L31.7161 157.625L34.9426 154.364H33.4909L30.15 157.764H30.0108V151.818H28.8375V162ZM41.8619 156.074C41.494 154.99 40.6687 154.264 39.1573 154.264C37.5465 154.264 36.3533 155.179 36.3533 156.472C36.3533 157.526 36.9798 158.232 38.3817 158.56L39.6545 158.858C40.4251 159.037 40.788 159.405 40.788 159.932C40.788 160.588 40.092 161.125 38.9982 161.125C38.0387 161.125 37.4371 160.712 37.2283 159.892L36.1147 160.17C36.3881 161.468 37.457 162.159 39.0181 162.159C40.793 162.159 42.0011 161.19 42.0011 159.872C42.0011 158.808 41.3349 158.137 39.9727 157.804L38.8391 157.526C37.9343 157.302 37.5266 156.999 37.5266 156.412C37.5266 155.756 38.2227 155.278 39.1573 155.278C40.1815 155.278 40.604 155.845 40.8079 156.372L41.8619 156.074ZM48.878 151.818H47.7047V162H48.878V151.818ZM51.027 162H52.2003V154.364H51.027V162ZM51.6236 153.091C52.081 153.091 52.4588 152.733 52.4588 152.295C52.4588 151.858 52.081 151.5 51.6236 151.5C51.1662 151.5 50.7884 151.858 50.7884 152.295C50.7884 152.733 51.1662 153.091 51.6236 153.091ZM54.3493 162H55.5225V159.141L56.3429 158.381L59.2015 162H60.693L57.2278 157.625L60.4544 154.364H59.0027L55.6618 157.764H55.5225V151.818H54.3493V162ZM64.8517 162.159C66.4029 162.159 67.5364 161.384 67.8944 160.23L66.7608 159.912C66.4625 160.707 65.7715 161.105 64.8517 161.105C63.4746 161.105 62.525 160.215 62.4703 158.58H68.0137V158.082C68.0137 155.239 66.3233 154.264 64.7324 154.264C62.6642 154.264 61.2921 155.895 61.2921 158.241C61.2921 160.588 62.6444 162.159 64.8517 162.159ZM62.4703 157.565C62.5499 156.377 63.3901 155.318 64.7324 155.318C66.0051 155.318 66.8205 156.273 66.8205 157.565H62.4703ZM74.4917 164.864C75.5506 164.864 76.2963 164.302 76.7388 163.114L79.9902 154.384L78.7076 154.364L76.5996 160.449H76.5201L74.4121 154.364H73.1394L75.9632 162.04L75.7445 162.636C75.3169 163.8 74.79 163.909 73.9348 163.69L73.6365 164.724C73.7559 164.784 74.0939 164.864 74.4917 164.864ZM84.3714 162.159C86.4396 162.159 87.8317 160.588 87.8317 158.222C87.8317 155.835 86.4396 154.264 84.3714 154.264C82.3033 154.264 80.9112 155.835 80.9112 158.222C80.9112 160.588 82.3033 162.159 84.3714 162.159ZM84.3714 161.105C82.8004 161.105 82.0845 159.753 82.0845 158.222C82.0845 156.69 82.8004 155.318 84.3714 155.318C85.9425 155.318 86.6584 156.69 86.6584 158.222C86.6584 159.753 85.9425 161.105 84.3714 161.105ZM94.4352 158.878C94.4352 160.31 93.3414 160.966 92.4664 160.966C91.492 160.966 90.796 160.25 90.796 159.136V154.364H89.6227V159.216C89.6227 161.165 90.6568 162.099 92.0886 162.099C93.242 162.099 93.9977 161.483 94.3556 160.707H94.4352V162H95.6085V154.364H94.4352V158.878ZM104.578 162.159C106.05 162.159 106.547 161.244 106.806 160.827H106.945V162H108.078V151.818H106.905V155.577H106.806C106.547 155.179 106.09 154.264 104.598 154.264C102.669 154.264 101.337 155.795 101.337 158.202C101.337 160.628 102.669 162.159 104.578 162.159ZM104.738 161.105C103.266 161.105 102.51 159.812 102.51 158.182C102.51 156.571 103.246 155.318 104.738 155.318C106.169 155.318 106.925 156.472 106.925 158.182C106.925 159.912 106.15 161.105 104.738 161.105ZM113.493 162.159C115.561 162.159 116.953 160.588 116.953 158.222C116.953 155.835 115.561 154.264 113.493 154.264C111.424 154.264 110.032 155.835 110.032 158.222C110.032 160.588 111.424 162.159 113.493 162.159ZM113.493 161.105C111.922 161.105 111.206 159.753 111.206 158.222C111.206 156.69 111.922 155.318 113.493 155.318C115.064 155.318 115.779 156.69 115.779 158.222C115.779 159.753 115.064 161.105 113.493 161.105ZM119.917 157.406C119.917 156.074 120.742 155.318 121.866 155.318C122.955 155.318 123.616 156.029 123.616 157.227V162H124.789V157.148C124.789 155.199 123.75 154.264 122.204 154.264C121.051 154.264 120.335 154.781 119.977 155.557H119.877V154.364H118.744V162H119.917V157.406ZM127.967 151.818H126.854V152.733C126.854 153.469 126.496 154.105 126.078 154.702L126.714 155.219C127.51 154.582 127.967 153.528 127.967 152.713V151.818ZM133.043 154.364H131.413V152.534H130.239V154.364H129.086V155.358H130.239V160.131C130.239 161.463 131.313 162.099 132.308 162.099C132.745 162.099 133.023 162.02 133.183 161.96L132.944 160.906C132.844 160.926 132.685 160.966 132.427 160.966C131.91 160.966 131.413 160.807 131.413 159.812V155.358H133.043V154.364ZM139.919 157.406C139.919 156.074 140.769 155.318 141.928 155.318C143.031 155.318 143.697 156.014 143.697 157.227V162H144.871V157.148C144.871 155.184 143.827 154.264 142.266 154.264C141.062 154.264 140.376 154.766 140.018 155.557H139.919V151.818H138.746V162H139.919V157.406ZM149.264 162.179C150.597 162.179 151.293 161.463 151.531 160.966H151.591V162H152.764V156.969C152.764 154.543 150.915 154.264 149.941 154.264C148.787 154.264 147.475 154.662 146.878 156.054L147.992 156.452C148.25 155.895 148.862 155.298 149.98 155.298C151.059 155.298 151.591 155.87 151.591 156.849V156.889C151.591 157.456 151.014 157.406 149.622 157.585C148.205 157.769 146.659 158.082 146.659 159.832C146.659 161.324 147.813 162.179 149.264 162.179ZM149.443 161.125C148.509 161.125 147.833 160.707 147.833 159.892C147.833 158.997 148.648 158.719 149.563 158.599C150.06 158.54 151.392 158.401 151.591 158.162V159.236C151.591 160.19 150.835 161.125 149.443 161.125ZM160.877 154.364H159.604L157.496 160.449H157.417L155.309 154.364H154.036L156.86 162H158.053L160.877 154.364ZM165.354 162.159C166.905 162.159 168.038 161.384 168.396 160.23L167.263 159.912C166.964 160.707 166.273 161.105 165.354 161.105C163.977 161.105 163.027 160.215 162.972 158.58H168.516V158.082C168.516 155.239 166.825 154.264 165.234 154.264C163.166 154.264 161.794 155.895 161.794 158.241C161.794 160.588 163.146 162.159 165.354 162.159ZM162.972 157.565C163.052 156.377 163.892 155.318 165.234 155.318C166.507 155.318 167.322 156.273 167.322 157.565H162.972ZM176.485 162.179C177.817 162.179 178.513 161.463 178.752 160.966H178.812V162H179.985V156.969C179.985 154.543 178.136 154.264 177.161 154.264C176.008 154.264 174.695 154.662 174.099 156.054L175.212 156.452C175.471 155.895 176.082 155.298 177.201 155.298C178.28 155.298 178.812 155.87 178.812 156.849V156.889C178.812 157.456 178.235 157.406 176.843 157.585C175.426 157.769 173.88 158.082 173.88 159.832C173.88 161.324 175.033 162.179 176.485 162.179ZM176.664 161.125C175.729 161.125 175.053 160.707 175.053 159.892C175.053 158.997 175.869 158.719 176.783 158.599C177.281 158.54 178.613 158.401 178.812 158.162V159.236C178.812 160.19 178.056 161.125 176.664 161.125ZM189.385 154.364H187.754V152.534H186.581V154.364H185.428V155.358H186.581V160.131C186.581 161.463 187.655 162.099 188.649 162.099C189.087 162.099 189.365 162.02 189.524 161.96L189.286 160.906C189.186 160.926 189.027 160.966 188.769 160.966C188.252 160.966 187.754 160.807 187.754 159.812V155.358H189.385V154.364ZM193.397 162.179C194.73 162.179 195.426 161.463 195.664 160.966H195.724V162H196.897V156.969C196.897 154.543 195.048 154.264 194.073 154.264C192.92 154.264 191.607 154.662 191.011 156.054L192.124 156.452C192.383 155.895 192.994 155.298 194.113 155.298C195.192 155.298 195.724 155.87 195.724 156.849V156.889C195.724 157.456 195.147 157.406 193.755 157.585C192.338 157.769 190.792 158.082 190.792 159.832C190.792 161.324 191.945 162.179 193.397 162.179ZM193.576 161.125C192.642 161.125 191.965 160.707 191.965 159.892C191.965 158.997 192.781 158.719 193.695 158.599C194.193 158.54 195.525 158.401 195.724 158.162V159.236C195.724 160.19 194.968 161.125 193.576 161.125ZM204.448 156.074C204.08 154.99 203.255 154.264 201.743 154.264C200.132 154.264 198.939 155.179 198.939 156.472C198.939 157.526 199.566 158.232 200.968 158.56L202.24 158.858C203.011 159.037 203.374 159.405 203.374 159.932C203.374 160.588 202.678 161.125 201.584 161.125C200.625 161.125 200.023 160.712 199.814 159.892L198.701 160.17C198.974 161.468 200.043 162.159 201.604 162.159C203.379 162.159 204.587 161.19 204.587 159.872C204.587 158.808 203.921 158.137 202.559 157.804L201.425 157.526C200.52 157.302 200.113 156.999 200.113 156.412C200.113 155.756 200.809 155.278 201.743 155.278C202.767 155.278 203.19 155.845 203.394 156.372L204.448 156.074ZM206.353 162H207.526V159.141L208.347 158.381L211.205 162H212.697L209.232 157.625L212.458 154.364H211.007L207.666 157.764H207.526V151.818H206.353V162ZM215.718 160.608H214.446L214.386 161.165C214.242 162.512 213.958 163.854 213.829 164.486H214.724C214.963 163.81 215.47 162.278 215.639 161.145L215.718 160.608ZM58.8678 182.864H60.0411V178.827H60.1405C60.3991 179.244 60.8962 180.159 62.3678 180.159C64.2769 180.159 65.6093 178.628 65.6093 176.202C65.6093 173.795 64.2769 172.264 62.3479 172.264C60.8564 172.264 60.3991 173.179 60.1405 173.577H60.0013V172.364H58.8678V182.864ZM60.0212 176.182C60.0212 174.472 60.7769 173.318 62.2087 173.318C63.7002 173.318 64.436 174.571 64.436 176.182C64.436 177.812 63.6803 179.105 62.2087 179.105C60.7968 179.105 60.0212 177.912 60.0212 176.182ZM68.5724 169.818H67.3991V180H68.5724V169.818ZM73.923 180.159C75.4742 180.159 76.6077 179.384 76.9656 178.23L75.8321 177.912C75.5338 178.707 74.8428 179.105 73.923 179.105C72.5459 179.105 71.5963 178.215 71.5416 176.58H77.085V176.082C77.085 173.239 75.3946 172.264 73.8037 172.264C71.7355 172.264 70.3634 173.895 70.3634 176.241C70.3634 178.588 71.7156 180.159 73.923 180.159ZM71.5416 175.565C71.6212 174.377 72.4614 173.318 73.8037 173.318C75.0764 173.318 75.8918 174.273 75.8918 175.565H71.5416ZM81.1169 180.179C82.4493 180.179 83.1453 179.463 83.384 178.966H83.4436V180H84.6169V174.969C84.6169 172.543 82.7675 172.264 81.7931 172.264C80.6396 172.264 79.3271 172.662 78.7306 174.054L79.8442 174.452C80.1027 173.895 80.7142 173.298 81.8328 173.298C82.9117 173.298 83.4436 173.87 83.4436 174.849V174.889C83.4436 175.456 82.8669 175.406 81.4749 175.585C80.058 175.769 78.5118 176.082 78.5118 177.832C78.5118 179.324 79.6652 180.179 81.1169 180.179ZM81.2959 179.125C80.3612 179.125 79.6851 178.707 79.6851 177.892C79.6851 176.997 80.5004 176.719 81.4152 176.599C81.9124 176.54 83.2448 176.401 83.4436 176.162V177.236C83.4436 178.19 82.6879 179.125 81.2959 179.125ZM92.1675 174.074C91.7996 172.99 90.9743 172.264 89.463 172.264C87.8522 172.264 86.659 173.179 86.659 174.472C86.659 175.526 87.2854 176.232 88.6874 176.56L89.9601 176.858C90.7307 177.037 91.0937 177.405 91.0937 177.932C91.0937 178.588 90.3976 179.125 89.3039 179.125C88.3444 179.125 87.7428 178.712 87.534 177.892L86.4204 178.17C86.6938 179.468 87.7627 180.159 89.3238 180.159C91.0986 180.159 92.3067 179.19 92.3067 177.872C92.3067 176.808 91.6405 176.137 90.2783 175.804L89.1448 175.526C88.24 175.302 87.8323 174.999 87.8323 174.412C87.8323 173.756 88.5283 173.278 89.463 173.278C90.4871 173.278 90.9097 173.845 91.1135 174.372L92.1675 174.074ZM97.2746 180.159C98.8257 180.159 99.9593 179.384 100.317 178.23L99.1837 177.912C98.8854 178.707 98.1943 179.105 97.2746 179.105C95.8975 179.105 94.9479 178.215 94.8932 176.58H100.437V176.082C100.437 173.239 98.7462 172.264 97.1553 172.264C95.0871 172.264 93.7149 173.895 93.7149 176.241C93.7149 178.588 95.0672 180.159 97.2746 180.159ZM94.8932 175.565C94.9727 174.377 95.8129 173.318 97.1553 173.318C98.428 173.318 99.2433 174.273 99.2433 175.565H94.8932ZM108.406 180.179C109.738 180.179 110.434 179.463 110.673 178.966H110.733V180H111.906V174.969C111.906 172.543 110.057 172.264 109.082 172.264C107.929 172.264 106.616 172.662 106.02 174.054L107.133 174.452C107.392 173.895 108.003 173.298 109.122 173.298C110.201 173.298 110.733 173.87 110.733 174.849V174.889C110.733 175.456 110.156 175.406 108.764 175.585C107.347 175.769 105.801 176.082 105.801 177.832C105.801 179.324 106.954 180.179 108.406 180.179ZM108.585 179.125C107.65 179.125 106.974 178.707 106.974 177.892C106.974 176.997 107.79 176.719 108.704 176.599C109.201 176.54 110.534 176.401 110.733 176.162V177.236C110.733 178.19 109.977 179.125 108.585 179.125ZM116.931 180.159C118.403 180.159 118.9 179.244 119.158 178.827H119.297V180H120.431V169.818H119.258V173.577H119.158C118.9 173.179 118.442 172.264 116.951 172.264C115.022 172.264 113.69 173.795 113.69 176.202C113.69 178.628 115.022 180.159 116.931 180.159ZM117.09 179.105C115.619 179.105 114.863 177.812 114.863 176.182C114.863 174.571 115.599 173.318 117.09 173.318C118.522 173.318 119.278 174.472 119.278 176.182C119.278 177.912 118.502 179.105 117.09 179.105ZM125.626 180.159C127.098 180.159 127.595 179.244 127.854 178.827H127.993V180H129.126V169.818H127.953V173.577H127.854C127.595 173.179 127.138 172.264 125.646 172.264C123.717 172.264 122.385 173.795 122.385 176.202C122.385 178.628 123.717 180.159 125.626 180.159ZM125.785 179.105C124.314 179.105 123.558 177.812 123.558 176.182C123.558 174.571 124.294 173.318 125.785 173.318C127.217 173.318 127.973 174.472 127.973 176.182C127.973 177.912 127.197 179.105 125.785 179.105ZM138.697 172.364H137.066V170.534H135.893V172.364H134.739V173.358H135.893V178.131C135.893 179.463 136.967 180.099 137.961 180.099C138.398 180.099 138.677 180.02 138.836 179.96L138.597 178.906C138.498 178.926 138.339 178.966 138.08 178.966C137.563 178.966 137.066 178.807 137.066 177.812V173.358H138.697V172.364ZM142.709 180.179C144.041 180.179 144.737 179.463 144.976 178.966H145.035V180H146.209V174.969C146.209 172.543 144.359 172.264 143.385 172.264C142.231 172.264 140.919 172.662 140.322 174.054L141.436 174.452C141.695 173.895 142.306 173.298 143.425 173.298C144.503 173.298 145.035 173.87 145.035 174.849V174.889C145.035 175.456 144.459 175.406 143.067 175.585C141.65 175.769 140.104 176.082 140.104 177.832C140.104 179.324 141.257 180.179 142.709 180.179ZM142.888 179.125C141.953 179.125 141.277 178.707 141.277 177.892C141.277 176.997 142.092 176.719 143.007 176.599C143.504 176.54 144.837 176.401 145.035 176.162V177.236C145.035 178.19 144.28 179.125 142.888 179.125ZM153.759 174.074C153.391 172.99 152.566 172.264 151.055 172.264C149.444 172.264 148.251 173.179 148.251 174.472C148.251 175.526 148.877 176.232 150.279 176.56L151.552 176.858C152.323 177.037 152.685 177.405 152.685 177.932C152.685 178.588 151.989 179.125 150.896 179.125C149.936 179.125 149.335 178.712 149.126 177.892L148.012 178.17C148.286 179.468 149.354 180.159 150.916 180.159C152.69 180.159 153.899 179.19 153.899 177.872C153.899 176.808 153.232 176.137 151.87 175.804L150.737 175.526C149.832 175.302 149.424 174.999 149.424 174.412C149.424 173.756 150.12 173.278 151.055 173.278C152.079 173.278 152.502 173.845 152.705 174.372L153.759 174.074ZM155.665 180H156.838V177.141L157.658 176.381L160.517 180H162.008L158.543 175.625L161.77 172.364H160.318L156.977 175.764H156.838V169.818H155.665V180Z" fill="#0B0A11" fill-opacity="0.7"/>
</g>
<defs>
<filter id="filter0_d" x="-1" y="0" width="223" height="193" filterUnits="userSpaceOnUse" color-interpolation-filters="sRGB">
<feFlood flood-opacity="0" result="BackgroundImageFix"/>
<feColorMatrix in="SourceAlpha" type="matrix" values="0 0 0 0 0 0 0 0 0 0 0 0 0 0 0 0 0 0 127 0" result="hardAlpha"/>
<feOffset dy="4"/>
<feGaussianBlur stdDeviation="2"/>
<feComposite in2="hardAlpha" operator="out"/>
<feColorMatrix type="matrix" values="0 0 0 0 0 0 0 0 0 0 0 0 0 0 0 0 0 0 0.25 0"/>
<feBlend mode="normal" in2="BackgroundImageFix" result="effect1_dropShadow"/>
<feBlend mode="normal" in="SourceGraphic" in2="effect1_dropShadow" result="shape"/>
</filter>
<filter id="filter1_d" x="24" y="-10" width="193" height="84" filterUnits="userSpaceOnUse" color-interpolation-filters="sRGB">
<feFlood flood-opacity="0" result="BackgroundImageFix"/>
<feColorMatrix in="SourceAlpha" type="matrix" values="0 0 0 0 0 0 0 0 0 0 0 0 0 0 0 0 0 0 127 0" result="hardAlpha"/>
<feOffset dy="10"/>
<feGaussianBlur stdDeviation="10"/>
<feColorMatrix type="matrix" values="0 0 0 0 0 0 0 0 0 0 0 0 0 0 0 0 0 0 0.07 0"/>
<feBlend mode="normal" in2="BackgroundImageFix" result="effect1_dropShadow"/>
<feBlend mode="normal" in="SourceGraphic" in2="effect1_dropShadow" result="shape"/>
</filter>
<filter id="filter2_d" x="-5" y="21" width="193" height="84" filterUnits="userSpaceOnUse" color-interpolation-filters="sRGB">
<feFlood flood-opacity="0" result="BackgroundImageFix"/>
<feColorMatrix in="SourceAlpha" type="matrix" values="0 0 0 0 0 0 0 0 0 0 0 0 0 0 0 0 0 0 127 0" result="hardAlpha"/>
<feOffset dy="10"/>
<feGaussianBlur stdDeviation="10"/>
<feColorMatrix type="matrix" values="0 0 0 0 0 0 0 0 0 0 0 0 0 0 0 0 0 0 0.07 0"/>
<feBlend mode="normal" in2="BackgroundImageFix" result="effect1_dropShadow"/>
<feBlend mode="normal" in="SourceGraphic" in2="effect1_dropShadow" result="shape"/>
</filter>
<clipPath id="clip0">
<rect width="215" height="185" fill="white" transform="translate(3)"/>
</clipPath>
</defs>
</svg>
